<svg xmlns="http://www.w3.org/2000/svg" width="107" height="63" fill="none"><path fill="#000" d="M78.998 38.507c.292 0 .516.135.672.403.18.27.27.639.27 1.11 0 .895-.214 1.59-.64 2.082-.828 1.008-2.004 1.938-3.527 2.79a9.648 9.648 0 0 1-4.839 1.276c-2.352 0-4.177-.638-5.476-1.915-1.3-1.277-1.95-3.024-1.95-5.242 0-1.545.326-2.979.975-4.3.65-1.345 1.546-2.409 2.688-3.193 1.165-.784 2.475-1.176 3.931-1.176 1.3 0 2.341.392 3.125 1.176.784.762 1.176 1.804 1.176 3.125 0 1.546-.56 2.879-1.68 3.999-1.097 1.097-2.968 1.97-5.611 2.62.56 1.03 1.624 1.546 3.192 1.546 1.008 0 2.15-.347 3.427-1.042 1.3-.716 2.42-1.646 3.36-2.788.269-.314.571-.47.907-.47Zm-8.467-4.872c-.829 0-1.534.482-2.117 1.445-.56.963-.84 2.128-.84 3.494v.068c1.322-.314 2.364-.784 3.125-1.412.762-.627 1.143-1.355 1.143-2.184 0-.425-.124-.761-.37-1.008-.224-.268-.538-.403-.94-.403Z"/><path fill="#000" d="M92.189 38.507c.291 0 .515.135.672.403.18.27.269.639.269 1.11 0 .895-.213 1.59-.639 2.082-.828 1.008-2.004 1.938-3.528 2.79a9.648 9.648 0 0 1-4.838 1.276c-2.352 0-4.178-.638-5.477-1.915-1.299-1.277-1.949-3.024-1.949-5.242 0-1.545.325-2.979.975-4.3.65-1.345 1.545-2.409 2.688-3.193 1.165-.784 2.475-1.176 3.931-1.176 1.3 0 2.34.392 3.125 1.176.784.762 1.176 1.804 1.176 3.125 0 1.546-.56 2.879-1.68 3.999-1.098 1.097-2.968 1.97-5.611 2.62.56 1.03 1.624 1.546 3.192 1.546 1.008 0 2.15-.347 3.427-1.042 1.299-.716 2.419-1.646 3.36-2.788.269-.314.571-.47.907-.47Zm-8.467-4.872c-.829 0-1.535.482-2.117 1.445-.56.963-.84 2.128-.84 3.494v.068c1.322-.314 2.363-.784 3.125-1.412.761-.627 1.142-1.355 1.142-2.184 0-.425-.123-.761-.37-1.008-.223-.268-.537-.403-.94-.403Z"/><path fill="#000" d="M95.938 33.534a69.837 69.837 0 0 0-.067 2.621c0 1.613.078 2.879.235 3.797.18.896.46 1.546.84 1.949.403.38.952.571 1.646.571.359 0 .784-.112 1.277-.336.493-.224.941-.515 1.344-.874.247-.224.493-.336.739-.336.269 0 .482.157.639.47.179.292.269.65.269 1.076 0 .426-.09.84-.269 1.243-.157.403-.403.74-.739 1.008-1.165.963-2.487 1.445-3.965 1.445-2.128 0-3.685-.885-4.67-2.654-.986-1.792-1.479-4.122-1.479-6.99 0-.985.034-1.982.1-2.99h-1.31c-.672 0-1.13-.123-1.377-.37-.224-.246-.336-.638-.336-1.175 0-1.255.504-1.882 1.512-1.882h1.915c.38-2.464.963-4.715 1.747-6.753.784-2.039 1.725-3.663 2.823-4.872 1.12-1.21 2.318-1.815 3.595-1.815.941 0 1.68.415 2.217 1.243.538.83.807 1.87.807 3.125 0 3.472-1.456 6.496-4.368 9.072h3.763c.358 0 .616.079.773.235.157.157.235.448.235.874 0 1.546-1.266 2.318-3.797 2.318h-4.099ZM99.5 19.893c-.336 0-.717.425-1.143 1.277-.403.828-.795 1.993-1.176 3.494a49.127 49.127 0 0 0-.907 4.94c1.322-1.143 2.307-2.42 2.957-3.831.672-1.434 1.008-2.733 1.008-3.898 0-1.321-.247-1.982-.74-1.982Z"/><ellipse cx="57.4" cy="11.4" fill="#000" rx="2.6" ry="1.4"/><ellipse cx="104.2" cy="38.6" fill="#000" rx="2.6" ry="1.4"/><ellipse cx="14.6" cy="51" fill="#000" rx="2.6" ry="1.4"/><ellipse cx="29.8" cy="4.2" fill="#000" rx="2.6" ry="1.4"/><ellipse cx="55" cy="57.4" fill="#000" rx="2.6" ry="1.4"/><ellipse cx="5" cy="40" fill="#000" rx="3" ry="1.6"/><ellipse cx="35" cy="61.2" fill="#000" rx="3" ry="1.6"/><ellipse cx="17.4" cy="11.6" fill="#000" rx="3" ry="1.6"/><ellipse cx="41.8" cy="3.2" fill="#000" rx="4.6" ry="2.4"/><ellipse cx="5.4" cy="29.2" fill="#000" rx="4.6" ry="2.4"/><ellipse cx="91.8" cy="49.6" fill="#000" rx="3.8" ry="2"/><ellipse cx="65" cy="51.6" fill="#000" rx="6.2" ry="3.2"/><path fill="#000" fill-rule="evenodd" d="M20 16.2c2.6-4.667 10.08-12.6 19.2-7 5.2-.8 17.2 0 17.2 12 3.067 1.6 7.2 6.6 2.8 13l.063.173C60.233 37.006 64.82 49.46 49 52l-.082.147c-1.985 3.577-4.443 8.007-13.518 4.653-8.2 5-17-1.2-17-8.2-6.8-1.6-12-10.4-5.6-17.8C11.4 24.6 12 18 20 16.2Zm-.386 30.63c.359.359.952.538 1.781.538.874 0 1.456-.224 1.747-.672.314-.448.55-1.243.706-2.386.74-5.398 1.658-9.676 2.755-12.835 1.12-3.18 2.262-5.387 3.427-6.619 1.165-1.254 2.296-1.882 3.394-1.882.65 0 1.131.202 1.445.605.336.403.504 1.03.504 1.882 0 1.568-.515 5.062-1.546 10.483-.38 2.016-.694 3.774-.94 5.275-.247 1.479-.37 2.677-.37 3.595 0 .986.168 1.658.504 2.016.358.359.918.538 1.68.538.873 0 1.5-.224 1.881-.672.404-.47.684-1.378.84-2.722.65-5.017 1.49-9.094 2.52-12.23 1.053-3.136 2.15-5.376 3.293-6.72 1.165-1.366 2.274-2.05 3.327-2.05.56 0 .985.202 1.276.605.314.381.47.963.47 1.747 0 .448-.033.908-.1 1.378-.067.448-.157.93-.269 1.445l-.235 1.075-1.344 6.149c-.538 2.509-.806 4.424-.806 5.745 0 1.904.537 3.428 1.612 4.57 1.076 1.12 2.565 1.68 4.47 1.68 1.253 0 2.452-.325 3.594-.974 1.143-.65 2.296-1.68 3.461-3.092.426-.515.639-1.21.639-2.083 0-.47-.09-.84-.27-1.109-.156-.268-.38-.403-.671-.403-.336 0-.639.157-.908.47-.963 1.143-1.803 1.96-2.52 2.453-.694.493-1.41.74-2.15.74-.784 0-1.4-.236-1.848-.706-.425-.47-.638-1.176-.638-2.117 0-.806.112-1.77.336-2.89l2.05-9.609c.29-1.411.436-2.61.436-3.595 0-1.815-.425-3.226-1.277-4.234-.828-1.008-2.027-1.512-3.595-1.512-1.949 0-3.673.672-5.174 2.016-1.501 1.344-2.812 3.562-3.931 6.653.201-1.098.302-2.016.302-2.755 0-1.882-.426-3.338-1.277-4.368-.829-1.03-1.971-1.546-3.427-1.546-1.904 0-3.651.728-5.242 2.184-1.59 1.434-3.024 3.976-4.3 7.627.044-.201.111-.56.201-1.075.09-.515.19-1.176.303-1.982.111-.829.168-1.546.168-2.15 0-1.501-.337-2.644-1.008-3.428-.65-.784-1.59-1.176-2.823-1.176-1.322 0-2.643.415-3.965 1.243-1.321.807-2.52 1.96-3.595 3.461-.336.47-.582.896-.74 1.277a3.044 3.044 0 0 0-.2 1.075c0 .381.111.728.335 1.042.247.291.527.437.84.437.381 0 .728-.213 1.042-.639.986-1.299 1.882-2.24 2.688-2.822.829-.605 1.534-.907 2.117-.907.739 0 1.109.504 1.109 1.512 0 1.075-.101 2.419-.303 4.032a273.65 273.65 0 0 1-1.378 9.139 147.49 147.49 0 0 0-.739 4.502c-.134 1.075-.201 1.96-.201 2.655 0 1.03.179 1.736.537 2.116Z" clip-rule="evenodd"/></svg>