<svg xmlns="http://www.w3.org/2000/svg" width="77" height="62" fill="none"><ellipse cx="61.6" cy="10.6" fill="#304366" rx="2.6" ry="1.4"/><ellipse cx="70.6" cy="22.4" fill="#304366" rx="2.6" ry="1.4"/><ellipse cx="63.6" cy="51.4" fill="#304366" rx="2.6" ry="1.4"/><ellipse cx="18.8" cy="50.2" fill="#304366" rx="2.6" ry="1.4"/><ellipse cx="34" cy="3.4" fill="#304366" rx="2.6" ry="1.4"/><ellipse cx="59.2" cy="56.6" fill="#304366" rx="2.6" ry="1.4"/><ellipse cx="9.2" cy="39.2" fill="#304366" rx="3" ry="1.6"/><ellipse cx="39.2" cy="60.4" fill="#304366" rx="3" ry="1.6"/><ellipse cx="26" cy="6.6" fill="#304366" rx="3" ry="1.6"/><ellipse cx="46" cy="2.4" fill="#304366" rx="4.6" ry="2.4"/><ellipse cx="9.6" cy="28.4" fill="#304366" rx="4.6" ry="2.4"/><ellipse cx="72.8" cy="37" fill="#304366" rx="3.8" ry="2"/><ellipse cx="6.2" cy="18.2" fill="#304366" rx="6.2" ry="3.2"/><path fill="#304366" fill-rule="evenodd" d="M24.2 15.4c2.6-4.667 10.08-12.6 19.2-7 5.2-.8 17.2 0 17.2 12 3.066 1.6 7.2 6.6 2.8 13l.063.173C64.433 36.206 69.02 48.66 53.2 51.2l-.082.147C51.133 54.923 48.675 59.354 39.6 56c-8.2 5-17-1.2-17-8.2-6.8-1.6-12-10.4-5.6-17.8-1.4-6.2-.8-12.8 7.2-14.6Zm-.386 30.63c.359.359.952.538 1.781.538.874 0 1.456-.224 1.747-.672.314-.448.55-1.243.706-2.386.74-5.398 1.658-9.676 2.755-12.835 1.12-3.18 2.262-5.387 3.427-6.62 1.165-1.253 2.296-1.88 3.394-1.88.65 0 1.131.2 1.445.604.336.403.504 1.03.504 1.882 0 1.568-.516 5.062-1.546 10.483-.38 2.016-.694 3.774-.94 5.275-.247 1.479-.37 2.677-.37 3.595 0 .986.168 1.658.504 2.016.358.359.918.538 1.68.538.873 0 1.5-.224 1.881-.672.404-.47.684-1.378.84-2.722.65-5.017 1.49-9.094 2.52-12.23 1.053-3.136 2.15-5.376 3.293-6.72 1.165-1.366 2.274-2.05 3.327-2.05.56 0 .985.202 1.276.605.314.38.47.963.47 1.747 0 .448-.033.907-.1 1.378-.067.448-.157.93-.269 1.445l-.235 1.075-1.344 6.149c-.538 2.508-.806 4.424-.806 5.745 0 1.904.537 3.428 1.612 4.57 1.075 1.12 2.565 1.68 4.47 1.68 1.254 0 2.452-.325 3.594-.974 1.143-.65 2.296-1.68 3.461-3.092.426-.515.639-1.21.639-2.083 0-.47-.09-.84-.27-1.109-.156-.269-.38-.403-.671-.403-.336 0-.639.157-.907.47-.964 1.143-1.804 1.96-2.52 2.453-.695.493-1.412.74-2.15.74-.785 0-1.4-.236-1.849-.706-.425-.47-.638-1.176-.638-2.117 0-.806.112-1.77.336-2.89l2.05-9.61c.29-1.41.436-2.609.436-3.594 0-1.815-.425-3.226-1.277-4.234-.828-1.008-2.027-1.512-3.595-1.512-1.949 0-3.674.672-5.174 2.016-1.501 1.344-2.812 3.562-3.931 6.653.201-1.098.302-2.016.302-2.755 0-1.882-.426-3.338-1.277-4.368-.829-1.03-1.971-1.546-3.427-1.546-1.904 0-3.651.728-5.242 2.184-1.59 1.434-3.024 3.976-4.3 7.627.044-.201.112-.56.201-1.075.09-.515.19-1.176.303-1.982.111-.83.168-1.546.168-2.15 0-1.502-.336-2.644-1.008-3.428-.65-.784-1.59-1.176-2.823-1.176-1.322 0-2.643.415-3.965 1.243-1.321.807-2.52 1.96-3.595 3.461-.336.47-.582.896-.74 1.277a3.044 3.044 0 0 0-.2 1.075c0 .38.111.728.335 1.042.247.29.527.437.84.437.381 0 .728-.213 1.042-.639.985-1.3 1.881-2.24 2.688-2.822.829-.605 1.534-.908 2.117-.908.739 0 1.108.505 1.108 1.512 0 1.076-.1 2.42-.302 4.032a273.65 273.65 0 0 1-1.377 9.14 147.49 147.49 0 0 0-.74 4.502c-.134 1.075-.201 1.96-.201 2.654 0 1.03.179 1.737.537 2.117Z" clip-rule="evenodd"/></svg>