<svg xmlns="http://www.w3.org/2000/svg" width="120" height="120" fill="none"><path fill="#000" fill-rule="evenodd" d="M0 0h120v120H0V0Zm101.938 61.534a69.325 69.325 0 0 0-.067 2.621c0 1.613.078 2.879.235 3.797.179.896.459 1.546.84 1.949.403.38.952.571 1.646.571.359 0 .784-.112 1.277-.336a5.326 5.326 0 0 0 1.344-.874c.247-.224.493-.336.739-.336.269 0 .482.157.639.47.179.292.269.65.269 1.076 0 .426-.09.84-.269 1.243-.157.403-.403.74-.739 1.008-1.165.963-2.487 1.445-3.965 1.445-2.128 0-3.685-.885-4.67-2.654-.254-.46-.474-.957-.663-1.488a2.017 2.017 0 0 1-.05.062l-.013.014c-.828 1.008-2.004 1.938-3.528 2.79a9.648 9.648 0 0 1-4.838 1.276c-2.352 0-4.178-.638-5.477-1.915a6.112 6.112 0 0 1-.699-.82c-.623.51-1.348.995-2.176 1.458a9.648 9.648 0 0 1-4.839 1.277c-2.352 0-4.177-.638-5.476-1.915-1.3-1.277-1.95-3.024-1.95-5.242 0-1.545.326-2.979.975-4.3.65-1.345 1.546-2.409 2.688-3.193 1.165-.784 2.475-1.176 3.931-1.176 1.3 0 2.341.392 3.125 1.176.784.762 1.176 1.804 1.176 3.125 0 1.546-.56 2.879-1.68 3.999-1.097 1.097-2.968 1.97-5.611 2.62.56 1.03 1.624 1.546 3.192 1.546 1.008 0 2.15-.347 3.427-1.042.743-.41 1.427-.888 2.052-1.437a9.986 9.986 0 0 1-.084-1.318c0-1.545.325-2.979.975-4.3.65-1.345 1.545-2.409 2.688-3.193 1.165-.784 2.475-1.176 3.931-1.176 1.3 0 2.34.392 3.125 1.176.784.762 1.176 1.804 1.176 3.125 0 1.546-.56 2.879-1.68 3.999-1.098 1.097-2.968 1.97-5.611 2.62.56 1.03 1.624 1.546 3.192 1.546 1.008 0 2.15-.347 3.427-1.042 1.299-.716 2.419-1.646 3.36-2.788.17-.198.352-.333.548-.406a21.708 21.708 0 0 1-.092-2.047c0-.986.034-1.983.1-2.99h-1.31c-.672 0-1.13-.124-1.377-.37-.224-.247-.336-.639-.336-1.176 0-1.255.504-1.882 1.512-1.882h1.915c.38-2.464.963-4.715 1.747-6.753.784-2.039 1.725-3.663 2.823-4.872 1.12-1.21 2.318-1.815 3.595-1.815.941 0 1.68.415 2.217 1.243.538.83.807 1.87.807 3.125 0 3.472-1.456 6.496-4.368 9.072h3.763c.358 0 .616.079.773.235.157.157.235.448.235.874 0 1.546-1.266 2.318-3.797 2.318h-4.099Zm3.562-13.641c-.336 0-.717.425-1.143 1.277-.403.828-.795 1.993-1.176 3.494a49.13 49.13 0 0 0-.907 4.94c1.322-1.143 2.307-2.42 2.957-3.831.672-1.434 1.008-2.733 1.008-3.898 0-1.321-.247-1.982-.739-1.982ZM74.414 63.08c.583-.963 1.288-1.445 2.117-1.445.403 0 .717.135.941.403.246.247.37.583.37 1.008 0 .83-.381 1.557-1.143 2.184-.761.628-1.803 1.098-3.125 1.412v-.068c0-1.366.28-2.53.84-3.494Zm13.191 0c.582-.963 1.288-1.445 2.117-1.445.403 0 .717.135.94.403.247.247.37.583.37 1.008 0 .83-.38 1.557-1.142 2.184-.762.628-1.803 1.098-3.125 1.412v-.068c0-1.366.28-2.53.84-3.494ZM63.4 40.8c1.436 0 2.6-.627 2.6-1.4 0-.773-1.164-1.4-2.6-1.4-1.436 0-2.6.627-2.6 1.4 0 .773 1.164 1.4 2.6 1.4Zm49.4 25.8c0 .773-1.164 1.4-2.6 1.4-1.436 0-2.6-.627-2.6-1.4 0-.773 1.164-1.4 2.6-1.4 1.436 0 2.6.627 2.6 1.4ZM20.6 80.4c1.436 0 2.6-.627 2.6-1.4 0-.773-1.164-1.4-2.6-1.4-1.436 0-2.6.627-2.6 1.4 0 .773 1.164 1.4 2.6 1.4Zm17.8-48.2c0 .773-1.164 1.4-2.6 1.4-1.436 0-2.6-.627-2.6-1.4 0-.773 1.164-1.4 2.6-1.4 1.436 0 2.6.627 2.6 1.4ZM61 86.8c1.436 0 2.6-.627 2.6-1.4 0-.773-1.164-1.4-2.6-1.4-1.436 0-2.6.627-2.6 1.4 0 .773 1.164 1.4 2.6 1.4ZM14 68c0 .884-1.343 1.6-3 1.6s-3-.716-3-1.6c0-.884 1.343-1.6 3-1.6s3 .716 3 1.6Zm27 22.8c1.657 0 3-.716 3-1.6 0-.884-1.343-1.6-3-1.6s-3 .716-3 1.6c0 .884 1.343 1.6 3 1.6ZM26.4 39.6c0 .884-1.343 1.6-3 1.6s-3-.716-3-1.6c0-.884 1.343-1.6 3-1.6s3 .716 3 1.6Zm21.4-6c2.54 0 4.6-1.075 4.6-2.4s-2.06-2.4-4.6-2.4c-2.54 0-4.6 1.075-4.6 2.4 0 1.326 2.06 2.4 4.6 2.4ZM16 57.2c0 1.325-2.06 2.4-4.6 2.4-2.54 0-4.6-1.075-4.6-2.4 0-1.326 2.06-2.4 4.6-2.4 2.54 0 4.6 1.075 4.6 2.4Zm81.8 22.4c2.099 0 3.8-.895 3.8-2s-1.701-2-3.8-2c-2.099 0-3.8.895-3.8 2s1.701 2 3.8 2Zm-20.6 0c0 1.767-2.776 3.2-6.2 3.2-3.424 0-6.2-1.433-6.2-3.2 0-1.767 2.776-3.2 6.2-3.2 3.424 0 6.2 1.433 6.2 3.2Zm-32-42.4c-9.12-5.6-16.6 2.333-19.2 7-8 1.8-8.6 8.4-7.2 14.6-6.4 7.4-1.2 16.2 5.6 17.8 0 7 8.8 13.2 17 8.2 9.075 3.354 11.533-1.076 13.518-4.653L55 80c15.819-2.539 11.233-14.994 10.263-17.627a35.149 35.149 0 0 1-.063-.173c4.4-6.4.266-11.4-2.8-13 0-12-12-12.8-17.2-12ZM27.395 75.368c-.829 0-1.422-.18-1.78-.538-.36-.38-.538-1.086-.538-2.116 0-.695.067-1.58.201-2.655.157-1.097.404-2.598.74-4.502a273.65 273.65 0 0 0 1.377-9.14c.202-1.612.303-2.956.303-4.031 0-1.008-.37-1.512-1.11-1.512-.582 0-1.287.302-2.116.907-.806.582-1.703 1.523-2.688 2.822-.314.426-.66.639-1.042.639-.313 0-.593-.146-.84-.437a1.751 1.751 0 0 1-.336-1.042c0-.358.068-.717.202-1.075.157-.38.403-.806.74-1.277 1.074-1.5 2.273-2.654 3.594-3.46 1.322-.83 2.643-1.244 3.965-1.244 1.232 0 2.173.392 2.823 1.176.671.784 1.008 1.927 1.008 3.427 0 .605-.056 1.322-.168 2.15a60.851 60.851 0 0 1-.303 1.983c-.09.515-.157.874-.201 1.075 1.276-3.65 2.71-6.193 4.3-7.627 1.59-1.456 3.338-2.184 5.242-2.184 1.456 0 2.598.515 3.427 1.546.851 1.03 1.277 2.486 1.277 4.368 0 .739-.1 1.657-.303 2.755 1.12-3.091 2.43-5.309 3.932-6.653 1.5-1.344 3.225-2.016 5.174-2.016 1.568 0 2.767.504 3.595 1.512.852 1.008 1.277 2.42 1.277 4.234 0 .985-.145 2.184-.437 3.595l-2.05 9.61c-.223 1.12-.335 2.083-.335 2.89 0 .94.212 1.646.638 2.116.448.47 1.064.706 1.848.706.74 0 1.456-.247 2.15-.74.717-.492 1.557-1.31 2.52-2.452.27-.314.572-.47.908-.47.29 0 .515.134.672.402.179.27.268.639.268 1.11 0 .873-.212 1.567-.638 2.082-1.165 1.412-2.318 2.442-3.46 3.092-1.143.65-2.342.974-3.596.974-1.904 0-3.393-.56-4.469-1.68-1.075-1.142-1.612-2.666-1.612-4.57 0-1.321.268-3.236.806-5.745l1.344-6.149.235-1.075c.112-.515.202-.997.269-1.445.067-.47.1-.93.1-1.378 0-.784-.156-1.366-.47-1.747-.29-.403-.717-.605-1.276-.605-1.053 0-2.162.684-3.327 2.05-1.142 1.344-2.24 3.584-3.293 6.72-1.03 3.136-1.87 7.213-2.52 12.23-.156 1.344-.436 2.252-.84 2.722-.38.448-1.008.672-1.881.672-.762 0-1.322-.18-1.68-.538-.336-.358-.504-1.03-.504-2.016 0-.918.123-2.116.37-3.595.246-1.5.56-3.259.94-5.275 1.03-5.42 1.546-8.915 1.546-10.483 0-.851-.168-1.479-.504-1.882-.314-.403-.795-.605-1.445-.605-1.098 0-2.229.628-3.394 1.882-1.165 1.232-2.307 3.438-3.427 6.62-1.098 3.158-2.016 7.436-2.755 12.834-.157 1.143-.392 1.938-.706 2.386-.29.448-.873.672-1.747.672Z" clip-rule="evenodd"/></svg>